# xmcd CD database file
#
# Track frame offsets:
#	183
#	38323
#	70255
#	112905
#	129908
#	152378
#	192598
#	220308
#	250113
#
# Disc length: 3681 seconds
#
# Revision: 0
# Processed by: cddbd v1.5.1PL0 Copyright (c) Steve Scherf et al.
# Submitted via: CDex 1.51
#
DISCID=6e0e5f09
DTITLE=René Thomas - Blue Note, Paris 1964
DYEAR=1990
DGENRE=Jazz
TTITLE0=Big "P"
TTITLE1=Bongo Bop
TTITLE2=They Say It's Wonderful
TTITLE3=Au Privave
TTITLE4=Moanin'
TTITLE5=The Jive Samba
TTITLE6=All Blues
TTITLE7=Marmaduke
TTITLE8=Buzzy
EXTD=YEAR: 1990
EXTT0=
EXTT1=
EXTT2=
EXTT3=
EXTT4=
EXTT5=
EXTT6=
EXTT7=
EXTT8=
PLAYORDER=
